<?xml version="1.0" standalone="no"?>
<!DOCTYPE svg PUBLIC "-//W3C//DTD SVG 20010904//EN"
 "http://www.w3.org/TR/2001/REC-SVG-20010904/DTD/svg10.dtd">
<svg version="1.0" xmlns="http://www.w3.org/2000/svg"
 width="96.000000pt" height="96.000000pt" viewBox="0 0 96.000000 96.000000"
 preserveAspectRatio="xMidYMid meet">

<g transform="translate(0.000000,96.000000) scale(0.100000,-0.100000)"
fill="#000000" stroke="none">
<path d="M92 868 c-29 -29 -5 -68 42 -68 30 0 32 -3 95 -156 l64 -155 -30 -59
c-35 -67 -34 -100 5 -130 24 -19 38 -20 270 -18 221 3 246 5 256 21 8 12 8 22
0 35 -10 15 -35 17 -243 20 -127 1 -231 5 -231 9 0 3 9 21 21 39 l21 34 163 0
c141 0 166 2 183 17 28 25 174 290 170 310 -5 24 -35 40 -54 28 -9 -6 -48 -69
-88 -140 l-73 -130 -149 -3 -149 -2 -64 157 c-85 211 -80 203 -144 203 -29 0
-58 -5 -65 -12z"/>
<path d="M425 815 c-42 -41 -29 -78 60 -165 l56 -55 64 66 c72 74 86 106 61
144 -22 34 -62 42 -99 22 -26 -15 -31 -15 -50 -2 -31 22 -64 18 -92 -10z"/>
<path d="M265 215 c-50 -49 -15 -135 55 -135 41 0 80 39 80 80 0 41 -39 80
-80 80 -19 0 -40 -9 -55 -25z"/>
<path d="M665 215 c-50 -49 -15 -135 55 -135 41 0 80 39 80 80 0 41 -39 80
-80 80 -19 0 -40 -9 -55 -25z"/>
</g>
</svg>
